{
    "asset" : {
        "generator" : "Khronos glTF Blender I/O v1.6.16",
        "version" : "2.0"
    },
    "scene" : 0,
    "scenes" : [
        {
            "name" : "Scene",
            "nodes" : [
                0,
                1,
                2,
                3,
                4,
                5,
                6
            ]
        }
    ],
    "nodes" : [
        {
            "mesh" : 0,
            "name" : "Suelo",
            "scale" : [
                8,
                8,
                8
            ]
        },
        {
            "mesh" : 1,
            "name" : "Alfombra",
            "scale" : [
                8,
                8,
                8
            ],
            "translation" : [
                0,
                0.05217994749546051,
                0
            ]
        },
        {
            "mesh" : 2,
            "name" : "Techos",
            "scale" : [
                7.606653690338135,
                7.606653690338135,
                7.606653690338135
            ]
        },
        {
            "name" : "Sun",
            "rotation" : [
                0.2721918821334839,
                -0.184048131108284,
                -0.32091453671455383,
                0.8882858157157898
            ]
        },
        {
            "mesh" : 3,
            "name" : "Luces",
            "rotation" : [
                0.5,
                0.5,
                -0.5,
                0.4999999701976776
            ],
            "scale" : [
                0.9131807684898376,
                0.9131807684898376,
                0.9131807684898376
            ],
            "translation" : [
                16.880474090576172,
                5.259929180145264,
                0.6373178958892822
            ]
        },
        {
            "mesh" : 4,
            "name" : "Sphere",
            "scale" : [
                1.5514487028121948,
                1.5514487028121948,
                1.5514487028121948
            ],
            "translation" : [
                7.70538854598999,
                0,
                0
            ]
        },
        {
            "mesh" : 5,
            "name" : "Alfombra.001",
            "scale" : [
                8,
                8,
                8
            ],
            "translation" : [
                0,
                9.86254596710205,
                0
            ]
        }
    ],
    "materials" : [
        {
            "doubleSided" : true,
            "name" : "Material",
            "pbrMetallicRoughness" : {
                "baseColorFactor" : [
                    0.15540212392807007,
                    0.32637539505958557,
                    0.030924836173653603,
                    1
                ],
                "metallicFactor" : 0
            }
        },
        {
            "doubleSided" : true,
            "name" : "Material.001",
            "pbrMetallicRoughness" : {
                "baseColorFactor" : [
                    0.6266626119613647,
                    0.4858076870441437,
                    0.29709580540657043,
                    1
                ],
                "metallicFactor" : 0
            }
        },
        {
            "alphaMode" : "BLEND",
            "doubleSided" : true,
            "name" : "vidrio",
            "pbrMetallicRoughness" : {
                "baseColorFactor" : [
                    0.5883456468582153,
                    0.8000000715255737,
                    0.7571914792060852,
                    1
                ],
                "metallicFactor" : 0,
                "roughnessFactor" : 0.3954545557498932
            }
        },
        {
            "doubleSided" : true,
            "name" : "Material.002",
            "pbrMetallicRoughness" : {
                "baseColorFactor" : [
                    0.0025794142857193947,
                    0.0025794142857193947,
                    0.0025794142857193947,
                    1
                ],
                "metallicFactor" : 0,
                "roughnessFactor" : 0.8394495248794556
            }
        },
        {
            "doubleSided" : true,
            "emissiveFactor" : [
                0.23301245272159576,
                0.21569524705410004,
                0.0230327770113945
            ],
            "name" : "Material.003",
            "pbrMetallicRoughness" : {
                "baseColorFactor" : [
                    0.7844280004501343,
                    0.8000000715255737,
                    0.1390221118927002,
                    1
                ],
                "metallicFactor" : 0,
                "roughnessFactor" : 0.3302752375602722
            }
        },
        {
            "doubleSided" : true,
            "name" : "Roca",
            "pbrMetallicRoughness" : {
                "baseColorFactor" : [
                    0.8000000715255737,
                    0.6176057457923889,
                    0.46450579166412354,
                    1
                ],
                "metallicFactor" : 0
            }
        }
    ],
    "meshes" : [
        {
            "name" : "Plane",
            "primitives" : [
                {
                    "attributes" : {
                        "POSITION" : 0,
                        "NORMAL" : 1,
                        "TEXCOORD_0" : 2
                    },
                    "indices" : 3,
                    "material" : 0
                }
            ]
        },
        {
            "name" : "Plane.001",
            "primitives" : [
                {
                    "attributes" : {
                        "POSITION" : 4,
                        "NORMAL" : 5,
                        "TEXCOORD_0" : 6
                    },
                    "indices" : 7,
                    "material" : 1
                }
            ]
        },
        {
            "name" : "Cube.005",
            "primitives" : [
                {
                    "attributes" : {
                        "POSITION" : 8,
                        "NORMAL" : 9,
                        "TEXCOORD_0" : 10
                    },
                    "indices" : 11,
                    "material" : 2
                }
            ]
        },
        {
            "name" : "Plane.011",
            "primitives" : [
                {
                    "attributes" : {
                        "POSITION" : 12,
                        "NORMAL" : 13,
                        "TEXCOORD_0" : 14
                    },
                    "indices" : 15,
                    "material" : 3
                },
                {
                    "attributes" : {
                        "POSITION" : 16,
                        "NORMAL" : 17,
                        "TEXCOORD_0" : 18
                    },
                    "indices" : 19,
                    "material" : 4
                }
            ]
        },
        {
            "name" : "Sphere",
            "primitives" : [
                {
                    "attributes" : {
                        "POSITION" : 20,
                        "NORMAL" : 21,
                        "TEXCOORD_0" : 22
                    },
                    "indices" : 23,
                    "material" : 5
                }
            ]
        },
        {
            "name" : "Plane.014",
            "primitives" : [
                {
                    "attributes" : {
                        "POSITION" : 24,
                        "NORMAL" : 25,
                        "TEXCOORD_0" : 26
                    },
                    "indices" : 27,
                    "material" : 1
                }
            ]
        }
    ],
    "accessors" : [
        {
            "bufferView" : 0,
            "componentType" : 5126,
            "count" : 4,
            "max" : [
                3,
                0,
                1
            ],
            "min" : [
                -1,
                0,
                -1
            ],
            "type" : "VEC3"
        },
        {
            "bufferView" : 1,
            "componentType" : 5126,
            "count" : 4,
            "type" : "VEC3"
        },
        {
            "bufferView" : 2,
            "componentType" : 5126,
            "count" : 4,
            "type" : "VEC2"
        },
        {
            "bufferView" : 3,
            "componentType" : 5123,
            "count" : 6,
            "type" : "SCALAR"
        },
        {
            "bufferView" : 4,
            "componentType" : 5126,
            "count" : 36,
            "max" : [
                3,
                0.01853514090180397,
                0.5824096202850342
            ],
            "min" : [
                -1,
                0,
                -0.5824096202850342
            ],
            "type" : "VEC3"
        },
        {
            "bufferView" : 5,
            "componentType" : 5126,
            "count" : 36,
            "type" : "VEC3"
        },
        {
            "bufferView" : 6,
            "componentType" : 5126,
            "count" : 36,
            "type" : "VEC2"
        },
        {
            "bufferView" : 7,
            "componentType" : 5123,
            "count" : 96,
            "type" : "SCALAR"
        },
        {
            "bufferView" : 8,
            "componentType" : 5126,
            "count" : 114,
            "max" : [
                3.1129560470581055,
                1.699305772781372,
                1.0072622299194336
            ],
            "min" : [
                -1,
                0.007601737976074219,
                -1.0072622299194336
            ],
            "type" : "VEC3"
        },
        {
            "bufferView" : 9,
            "componentType" : 5126,
            "count" : 114,
            "type" : "VEC3"
        },
        {
            "bufferView" : 10,
            "componentType" : 5126,
            "count" : 114,
            "type" : "VEC2"
        },
        {
            "bufferView" : 11,
            "componentType" : 5123,
            "count" : 180,
            "type" : "SCALAR"
        },
        {
            "bufferView" : 12,
            "componentType" : 5126,
            "count" : 236,
            "max" : [
                4.934093952178955,
                5.426555633544922,
                0.8690838813781738
            ],
            "min" : [
                -4.934093475341797,
                -24.460628509521484,
                -0.11227390170097351
            ],
            "type" : "VEC3"
        },
        {
            "bufferView" : 13,
            "componentType" : 5126,
            "count" : 236,
            "type" : "VEC3"
        },
        {
            "bufferView" : 14,
            "componentType" : 5126,
            "count" : 236,
            "type" : "VEC2"
        },
        {
            "bufferView" : 15,
            "componentType" : 5123,
            "count" : 360,
            "type" : "SCALAR"
        },
        {
            "bufferView" : 16,
            "componentType" : 5126,
            "count" : 280,
            "max" : [
                3.932608127593994,
                5.42655611038208,
                1.2762577533721924
            ],
            "min" : [
                -4.327416896820068,
                -24.460628509521484,
                0.42886945605278015
            ],
            "type" : "VEC3"
        },
        {
            "bufferView" : 17,
            "componentType" : 5126,
            "count" : 280,
            "type" : "VEC3"
        },
        {
            "bufferView" : 18,
            "componentType" : 5126,
            "count" : 280,
            "type" : "VEC2"
        },
        {
            "bufferView" : 19,
            "componentType" : 5123,
            "count" : 420,
            "type" : "SCALAR"
        },
        {
            "bufferView" : 20,
            "componentType" : 5126,
            "count" : 329,
            "max" : [
                0.9999997019767761,
                1,
                0.9999994039535522
            ],
            "min" : [
                -0.9999990463256836,
                -0.19509032368659973,
                -0.9999987483024597
            ],
            "type" : "VEC3"
        },
        {
            "bufferView" : 21,
            "componentType" : 5126,
            "count" : 329,
            "type" : "VEC3"
        },
        {
            "bufferView" : 22,
            "componentType" : 5126,
            "count" : 329,
            "type" : "VEC2"
        },
        {
            "bufferView" : 23,
            "componentType" : 5123,
            "count" : 1632,
            "type" : "SCALAR"
        },
        {
            "bufferView" : 24,
            "componentType" : 5126,
            "count" : 62,
            "max" : [
                3,
                -0.16181910037994385,
                0.3994544446468353
            ],
            "min" : [
                -0.9999998807907104,
                -0.16181910037994385,
                -0.3994544446468353
            ],
            "type" : "VEC3"
        },
        {
            "bufferView" : 25,
            "componentType" : 5126,
            "count" : 62,
            "type" : "VEC3"
        },
        {
            "bufferView" : 26,
            "componentType" : 5126,
            "count" : 62,
            "type" : "VEC2"
        },
        {
            "bufferView" : 27,
            "componentType" : 5123,
            "count" : 96,
            "type" : "SCALAR"
        }
    ],
    "bufferViews" : [
        {
            "buffer" : 0,
            "byteLength" : 48,
            "byteOffset" : 0
        },
        {
            "buffer" : 0,
            "byteLength" : 48,
            "byteOffset" : 48
        },
        {
            "buffer" : 0,
            "byteLength" : 32,
            "byteOffset" : 96
        },
        {
            "buffer" : 0,
            "byteLength" : 12,
            "byteOffset" : 128
        },
        {
            "buffer" : 0,
            "byteLength" : 432,
            "byteOffset" : 140
        },
        {
            "buffer" : 0,
            "byteLength" : 432,
            "byteOffset" : 572
        },
        {
            "buffer" : 0,
            "byteLength" : 288,
            "byteOffset" : 1004
        },
        {
            "buffer" : 0,
            "byteLength" : 192,
            "byteOffset" : 1292
        },
        {
            "buffer" : 0,
            "byteLength" : 1368,
            "byteOffset" : 1484
        },
        {
            "buffer" : 0,
            "byteLength" : 1368,
            "byteOffset" : 2852
        },
        {
            "buffer" : 0,
            "byteLength" : 912,
            "byteOffset" : 4220
        },
        {
            "buffer" : 0,
            "byteLength" : 360,
            "byteOffset" : 5132
        },
        {
            "buffer" : 0,
            "byteLength" : 2832,
            "byteOffset" : 5492
        },
        {
            "buffer" : 0,
            "byteLength" : 2832,
            "byteOffset" : 8324
        },
        {
            "buffer" : 0,
            "byteLength" : 1888,
            "byteOffset" : 11156
        },
        {
            "buffer" : 0,
            "byteLength" : 720,
            "byteOffset" : 13044
        },
        {
            "buffer" : 0,
            "byteLength" : 3360,
            "byteOffset" : 13764
        },
        {
            "buffer" : 0,
            "byteLength" : 3360,
            "byteOffset" : 17124
        },
        {
            "buffer" : 0,
            "byteLength" : 2240,
            "byteOffset" : 20484
        },
        {
            "buffer" : 0,
            "byteLength" : 840,
            "byteOffset" : 22724
        },
        {
            "buffer" : 0,
            "byteLength" : 3948,
            "byteOffset" : 23564
        },
        {
            "buffer" : 0,
            "byteLength" : 3948,
            "byteOffset" : 27512
        },
        {
            "buffer" : 0,
            "byteLength" : 2632,
            "byteOffset" : 31460
        },
        {
            "buffer" : 0,
            "byteLength" : 3264,
            "byteOffset" : 34092
        },
        {
            "buffer" : 0,
            "byteLength" : 744,
            "byteOffset" : 37356
        },
        {
            "buffer" : 0,
            "byteLength" : 744,
            "byteOffset" : 38100
        },
        {
            "buffer" : 0,
            "byteLength" : 496,
            "byteOffset" : 38844
        },
        {
            "buffer" : 0,
            "byteLength" : 192,
            "byteOffset" : 39340
        }
    ],
    "buffers" : [
        {
            "byteLength" : 39532,
            "uri" : "Building.bin"
        }
    ]
}
