{
    "asset" : {
        "generator" : "Khronos glTF Blender I/O v1.6.16",
        "version" : "2.0"
    },
    "scene" : 0,
    "scenes" : [
        {
            "name" : "Scene",
            "nodes" : [
                0,
                1
            ]
        }
    ],
    "nodes" : [
        {
            "mesh" : 0,
            "name" : "Text.005",
            "rotation" : [
                0.7071068286895752,
                0,
                0,
                0.7071068286895752
            ],
            "scale" : [
                0.06966222077608109,
                0.06966222077608109,
                0.06966222077608109
            ],
            "translation" : [
                -0.963668942451477,
                1.1216551065444946,
                0.01093628816306591
            ]
        },
        {
            "mesh" : 1,
            "name" : "Cube.008",
            "translation" : [
                -0.8381161689758301,
                1.1531100273132324,
                0
            ]
        }
    ],
    "materials" : [
        {
            "doubleSided" : true,
            "name" : "Material",
            "pbrMetallicRoughness" : {
                "baseColorFactor" : [
                    0.027209827676415443,
                    0.01296174619346857,
                    0.0026821019127964973,
                    1
                ],
                "metallicFactor" : 0
            }
        }
    ],
    "meshes" : [
        {
            "name" : "Text.005",
            "primitives" : [
                {
                    "attributes" : {
                        "POSITION" : 0,
                        "NORMAL" : 1,
                        "TEXCOORD_0" : 2
                    },
                    "indices" : 3,
                    "material" : 0
                }
            ]
        },
        {
            "name" : "Cube.008",
            "primitives" : [
                {
                    "attributes" : {
                        "POSITION" : 4,
                        "NORMAL" : 5,
                        "TEXCOORD_0" : 6
                    },
                    "indices" : 7
                }
            ]
        }
    ],
    "accessors" : [
        {
            "bufferView" : 0,
            "componentType" : 5126,
            "count" : 349,
            "max" : [
                3.444000244140625,
                0,
                0.009000000543892384
            ],
            "min" : [
                0.07000000029802322,
                0,
                -0.6910000443458557
            ],
            "type" : "VEC3"
        },
        {
            "bufferView" : 1,
            "componentType" : 5126,
            "count" : 349,
            "type" : "VEC3"
        },
        {
            "bufferView" : 2,
            "componentType" : 5126,
            "count" : 349,
            "type" : "VEC2"
        },
        {
            "bufferView" : 3,
            "componentType" : 5123,
            "count" : 792,
            "type" : "SCALAR"
        },
        {
            "bufferView" : 4,
            "componentType" : 5126,
            "count" : 24,
            "max" : [
                0.14054806530475616,
                0.07673320919275284,
                0.007988765835762024
            ],
            "min" : [
                -0.14054806530475616,
                -0.07673323154449463,
                -0.007988765835762024
            ],
            "type" : "VEC3"
        },
        {
            "bufferView" : 5,
            "componentType" : 5126,
            "count" : 24,
            "type" : "VEC3"
        },
        {
            "bufferView" : 6,
            "componentType" : 5126,
            "count" : 24,
            "type" : "VEC2"
        },
        {
            "bufferView" : 7,
            "componentType" : 5123,
            "count" : 36,
            "type" : "SCALAR"
        }
    ],
    "bufferViews" : [
        {
            "buffer" : 0,
            "byteLength" : 4188,
            "byteOffset" : 0
        },
        {
            "buffer" : 0,
            "byteLength" : 4188,
            "byteOffset" : 4188
        },
        {
            "buffer" : 0,
            "byteLength" : 2792,
            "byteOffset" : 8376
        },
        {
            "buffer" : 0,
            "byteLength" : 1584,
            "byteOffset" : 11168
        },
        {
            "buffer" : 0,
            "byteLength" : 288,
            "byteOffset" : 12752
        },
        {
            "buffer" : 0,
            "byteLength" : 288,
            "byteOffset" : 13040
        },
        {
            "buffer" : 0,
            "byteLength" : 192,
            "byteOffset" : 13328
        },
        {
            "buffer" : 0,
            "byteLength" : 72,
            "byteOffset" : 13520
        }
    ],
    "buffers" : [
        {
            "byteLength" : 13592,
            "uri" : "menu_photo.bin"
        }
    ]
}
