{
    "asset" : {
        "generator" : "Khronos glTF Blender I/O v1.6.16",
        "version" : "2.0"
    },
    "scene" : 0,
    "scenes" : [
        {
            "name" : "Scene",
            "nodes" : [
                0,
                1
            ]
        }
    ],
    "nodes" : [
        {
            "mesh" : 0,
            "name" : "Cube.006",
            "translation" : [
                -0.8381161689758301,
                1.570200800895691,
                0
            ]
        },
        {
            "mesh" : 1,
            "name" : "Text.003",
            "rotation" : [
                0.7071068286895752,
                0,
                0,
                0.7071068286895752
            ],
            "scale" : [
                0.09428800642490387,
                0.09428800642490387,
                0.09428800642490387
            ],
            "translation" : [
                -0.963668942451477,
                1.5350991487503052,
                0.01093628816306591
            ]
        }
    ],
    "materials" : [
        {
            "doubleSided" : true,
            "name" : "Material",
            "pbrMetallicRoughness" : {
                "baseColorFactor" : [
                    0.027209827676415443,
                    0.01296174619346857,
                    0.0026821019127964973,
                    1
                ],
                "metallicFactor" : 0
            }
        }
    ],
    "meshes" : [
        {
            "name" : "Cube.006",
            "primitives" : [
                {
                    "attributes" : {
                        "POSITION" : 0,
                        "NORMAL" : 1,
                        "TEXCOORD_0" : 2
                    },
                    "indices" : 3
                }
            ]
        },
        {
            "name" : "Text.003",
            "primitives" : [
                {
                    "attributes" : {
                        "POSITION" : 4,
                        "NORMAL" : 5,
                        "TEXCOORD_0" : 6
                    },
                    "indices" : 7,
                    "material" : 0
                }
            ]
        }
    ],
    "accessors" : [
        {
            "bufferView" : 0,
            "componentType" : 5126,
            "count" : 24,
            "max" : [
                0.14054806530475616,
                0.07673320919275284,
                0.007988765835762024
            ],
            "min" : [
                -0.14054806530475616,
                -0.07673323154449463,
                -0.007988765835762024
            ],
            "type" : "VEC3"
        },
        {
            "bufferView" : 1,
            "componentType" : 5126,
            "count" : 24,
            "type" : "VEC3"
        },
        {
            "bufferView" : 2,
            "componentType" : 5126,
            "count" : 24,
            "type" : "VEC2"
        },
        {
            "bufferView" : 3,
            "componentType" : 5123,
            "count" : 36,
            "type" : "SCALAR"
        },
        {
            "bufferView" : 4,
            "componentType" : 5126,
            "count" : 161,
            "max" : [
                2.690999984741211,
                0,
                0.009000000543892384
            ],
            "min" : [
                0.04800000041723251,
                0,
                -0.6910000443458557
            ],
            "type" : "VEC3"
        },
        {
            "bufferView" : 5,
            "componentType" : 5126,
            "count" : 161,
            "type" : "VEC3"
        },
        {
            "bufferView" : 6,
            "componentType" : 5126,
            "count" : 161,
            "type" : "VEC2"
        },
        {
            "bufferView" : 7,
            "componentType" : 5123,
            "count" : 369,
            "type" : "SCALAR"
        }
    ],
    "bufferViews" : [
        {
            "buffer" : 0,
            "byteLength" : 288,
            "byteOffset" : 0
        },
        {
            "buffer" : 0,
            "byteLength" : 288,
            "byteOffset" : 288
        },
        {
            "buffer" : 0,
            "byteLength" : 192,
            "byteOffset" : 576
        },
        {
            "buffer" : 0,
            "byteLength" : 72,
            "byteOffset" : 768
        },
        {
            "buffer" : 0,
            "byteLength" : 1932,
            "byteOffset" : 840
        },
        {
            "buffer" : 0,
            "byteLength" : 1932,
            "byteOffset" : 2772
        },
        {
            "buffer" : 0,
            "byteLength" : 1288,
            "byteOffset" : 4704
        },
        {
            "buffer" : 0,
            "byteLength" : 738,
            "byteOffset" : 5992
        }
    ],
    "buffers" : [
        {
            "byteLength" : 6732,
            "uri" : "menu_chat.bin"
        }
    ]
}
