{
    "asset" : {
        "generator" : "Khronos glTF Blender I/O v1.6.16",
        "version" : "2.0"
    },
    "scene" : 0,
    "scenes" : [
        {
            "name" : "Scene",
            "nodes" : [
                0,
                1
            ]
        }
    ],
    "nodes" : [
        {
            "mesh" : 0,
            "name" : "Text.002",
            "rotation" : [
                0.7071068286895752,
                0,
                0,
                0.7071068286895752
            ],
            "scale" : [
                0.09990119934082031,
                0.09990119934082031,
                0.09990119934082031
            ],
            "translation" : [
                -0.954197883605957,
                1.7299920320510864,
                0.014628279022872448
            ]
        },
        {
            "mesh" : 1,
            "name" : "Cube.005",
            "translation" : [
                -0.8381161689758301,
                1.7630068063735962,
                0
            ]
        }
    ],
    "materials" : [
        {
            "doubleSided" : true,
            "name" : "Material",
            "pbrMetallicRoughness" : {
                "baseColorFactor" : [
                    0.027209827676415443,
                    0.01296174619346857,
                    0.0026821019127964973,
                    1
                ],
                "metallicFactor" : 0
            }
        }
    ],
    "meshes" : [
        {
            "name" : "Text.001",
            "primitives" : [
                {
                    "attributes" : {
                        "POSITION" : 0,
                        "NORMAL" : 1,
                        "TEXCOORD_0" : 2
                    },
                    "indices" : 3,
                    "material" : 0
                }
            ]
        },
        {
            "name" : "Cube.005",
            "primitives" : [
                {
                    "attributes" : {
                        "POSITION" : 4,
                        "NORMAL" : 5,
                        "TEXCOORD_0" : 6
                    },
                    "indices" : 7
                }
            ]
        }
    ],
    "accessors" : [
        {
            "bufferView" : 0,
            "componentType" : 5126,
            "count" : 43,
            "max" : [
                2.3990001678466797,
                0,
                0
            ],
            "min" : [
                0.07300000637769699,
                0,
                -0.6820000410079956
            ],
            "type" : "VEC3"
        },
        {
            "bufferView" : 1,
            "componentType" : 5126,
            "count" : 43,
            "type" : "VEC3"
        },
        {
            "bufferView" : 2,
            "componentType" : 5126,
            "count" : 43,
            "type" : "VEC2"
        },
        {
            "bufferView" : 3,
            "componentType" : 5123,
            "count" : 87,
            "type" : "SCALAR"
        },
        {
            "bufferView" : 4,
            "componentType" : 5126,
            "count" : 24,
            "max" : [
                0.14054806530475616,
                0.07673320919275284,
                0.007988765835762024
            ],
            "min" : [
                -0.14054806530475616,
                -0.07673323154449463,
                -0.007988765835762024
            ],
            "type" : "VEC3"
        },
        {
            "bufferView" : 5,
            "componentType" : 5126,
            "count" : 24,
            "type" : "VEC3"
        },
        {
            "bufferView" : 6,
            "componentType" : 5126,
            "count" : 24,
            "type" : "VEC2"
        },
        {
            "bufferView" : 7,
            "componentType" : 5123,
            "count" : 36,
            "type" : "SCALAR"
        }
    ],
    "bufferViews" : [
        {
            "buffer" : 0,
            "byteLength" : 516,
            "byteOffset" : 0
        },
        {
            "buffer" : 0,
            "byteLength" : 516,
            "byteOffset" : 516
        },
        {
            "buffer" : 0,
            "byteLength" : 344,
            "byteOffset" : 1032
        },
        {
            "buffer" : 0,
            "byteLength" : 174,
            "byteOffset" : 1376
        },
        {
            "buffer" : 0,
            "byteLength" : 288,
            "byteOffset" : 1552
        },
        {
            "buffer" : 0,
            "byteLength" : 288,
            "byteOffset" : 1840
        },
        {
            "buffer" : 0,
            "byteLength" : 192,
            "byteOffset" : 2128
        },
        {
            "buffer" : 0,
            "byteLength" : 72,
            "byteOffset" : 2320
        }
    ],
    "buffers" : [
        {
            "byteLength" : 2392,
            "uri" : "menu_mint.bin"
        }
    ]
}
