{
    "asset" : {
        "generator" : "Khronos glTF Blender I/O v1.6.16",
        "version" : "2.0"
    },
    "scene" : 0,
    "scenes" : [
        {
            "name" : "Scene",
            "nodes" : [
                0,
                1
            ]
        }
    ],
    "nodes" : [
        {
            "mesh" : 0,
            "name" : "Cube.012",
            "rotation" : [
                0,
                0,
                0.25207915902137756,
                0.9677066206932068
            ],
            "scale" : [
                1.4973167181015015,
                1.4973167181015015,
                1.4973167181015015
            ],
            "translation" : [
                1.2310751676559448,
                1.8995155096054077,
                0.03234072029590607
            ]
        },
        {
            "mesh" : 1,
            "name" : "Text.009",
            "rotation" : [
                0.6861562728881836,
                0.17084987461566925,
                0.17084991931915283,
                0.6861562132835388
            ],
            "scale" : [
                0.09208592027425766,
                0.09208592027425766,
                0.09208592027425766
            ],
            "translation" : [
                1.0732381343841553,
                1.786930799484253,
                0.05013011768460274
            ]
        }
    ],
    "materials" : [
        {
            "doubleSided" : true,
            "name" : "Material",
            "pbrMetallicRoughness" : {
                "baseColorFactor" : [
                    0.027209827676415443,
                    0.01296174619346857,
                    0.0026821019127964973,
                    1
                ],
                "metallicFactor" : 0
            }
        }
    ],
    "meshes" : [
        {
            "name" : "Cube.012",
            "primitives" : [
                {
                    "attributes" : {
                        "POSITION" : 0,
                        "NORMAL" : 1,
                        "TEXCOORD_0" : 2
                    },
                    "indices" : 3
                }
            ]
        },
        {
            "name" : "Text.008",
            "primitives" : [
                {
                    "attributes" : {
                        "POSITION" : 4,
                        "NORMAL" : 5,
                        "TEXCOORD_0" : 6
                    },
                    "indices" : 7,
                    "material" : 0
                }
            ]
        }
    ],
    "accessors" : [
        {
            "bufferView" : 0,
            "componentType" : 5126,
            "count" : 24,
            "max" : [
                0.14054806530475616,
                0.07673320919275284,
                0.007988765835762024
            ],
            "min" : [
                -0.14054803550243378,
                -0.07673323154449463,
                -0.007988765835762024
            ],
            "type" : "VEC3"
        },
        {
            "bufferView" : 1,
            "componentType" : 5126,
            "count" : 24,
            "type" : "VEC3"
        },
        {
            "bufferView" : 2,
            "componentType" : 5126,
            "count" : 24,
            "type" : "VEC2"
        },
        {
            "bufferView" : 3,
            "componentType" : 5123,
            "count" : 36,
            "type" : "SCALAR"
        },
        {
            "bufferView" : 4,
            "componentType" : 5126,
            "count" : 638,
            "max" : [
                3.690000295639038,
                0,
                0.010000000707805157
            ],
            "min" : [
                0.05000000074505806,
                0,
                -0.6910000443458557
            ],
            "type" : "VEC3"
        },
        {
            "bufferView" : 5,
            "componentType" : 5126,
            "count" : 638,
            "type" : "VEC3"
        },
        {
            "bufferView" : 6,
            "componentType" : 5126,
            "count" : 638,
            "type" : "VEC2"
        },
        {
            "bufferView" : 7,
            "componentType" : 5123,
            "count" : 1434,
            "type" : "SCALAR"
        }
    ],
    "bufferViews" : [
        {
            "buffer" : 0,
            "byteLength" : 288,
            "byteOffset" : 0
        },
        {
            "buffer" : 0,
            "byteLength" : 288,
            "byteOffset" : 288
        },
        {
            "buffer" : 0,
            "byteLength" : 192,
            "byteOffset" : 576
        },
        {
            "buffer" : 0,
            "byteLength" : 72,
            "byteOffset" : 768
        },
        {
            "buffer" : 0,
            "byteLength" : 7656,
            "byteOffset" : 840
        },
        {
            "buffer" : 0,
            "byteLength" : 7656,
            "byteOffset" : 8496
        },
        {
            "buffer" : 0,
            "byteLength" : 5104,
            "byteOffset" : 16152
        },
        {
            "buffer" : 0,
            "byteLength" : 2868,
            "byteOffset" : 21256
        }
    ],
    "buffers" : [
        {
            "byteLength" : 24124,
            "uri" : "mint_50off.bin"
        }
    ]
}
