{
    "asset" : {
        "generator" : "Khronos glTF Blender I/O v1.6.16",
        "version" : "2.0"
    },
    "scene" : 0,
    "scenes" : [
        {
            "name" : "Scene",
            "nodes" : [
                0,
                1
            ]
        }
    ],
    "nodes" : [
        {
            "mesh" : 0,
            "name" : "Text.008",
            "rotation" : [
                0.7071068286895752,
                0,
                0,
                0.7071068286895752
            ],
            "scale" : [
                0.09948670119047165,
                0.09948670119047165,
                0.09948670119047165
            ],
            "translation" : [
                0.6887872219085693,
                1.120045781135559,
                0.016400616616010666
            ]
        },
        {
            "mesh" : 1,
            "name" : "Cube.010",
            "scale" : [
                1.4973167181015015,
                1.4973167181015015,
                1.4973167181015015
            ],
            "translation" : [
                0.8403463959693909,
                1.1031758785247803,
                -0.0036374120973050594
            ]
        }
    ],
    "materials" : [
        {
            "doubleSided" : true,
            "name" : "Material",
            "pbrMetallicRoughness" : {
                "baseColorFactor" : [
                    0.027209827676415443,
                    0.01296174619346857,
                    0.0026821019127964973,
                    1
                ],
                "metallicFactor" : 0
            }
        }
    ],
    "meshes" : [
        {
            "name" : "Text.009",
            "primitives" : [
                {
                    "attributes" : {
                        "POSITION" : 0,
                        "NORMAL" : 1,
                        "TEXCOORD_0" : 2
                    },
                    "indices" : 3,
                    "material" : 0
                }
            ]
        },
        {
            "name" : "Cube.010",
            "primitives" : [
                {
                    "attributes" : {
                        "POSITION" : 4,
                        "NORMAL" : 5,
                        "TEXCOORD_0" : 6
                    },
                    "indices" : 7
                }
            ]
        }
    ],
    "accessors" : [
        {
            "bufferView" : 0,
            "componentType" : 5126,
            "count" : 333,
            "max" : [
                3.3960001468658447,
                0,
                1.2300000190734863
            ],
            "min" : [
                0.05000000074505806,
                0,
                -0.6910000443458557
            ],
            "type" : "VEC3"
        },
        {
            "bufferView" : 1,
            "componentType" : 5126,
            "count" : 333,
            "type" : "VEC3"
        },
        {
            "bufferView" : 2,
            "componentType" : 5126,
            "count" : 333,
            "type" : "VEC2"
        },
        {
            "bufferView" : 3,
            "componentType" : 5123,
            "count" : 711,
            "type" : "SCALAR"
        },
        {
            "bufferView" : 4,
            "componentType" : 5126,
            "count" : 24,
            "max" : [
                0.14054806530475616,
                0.07673320919275284,
                0.007988765835762024
            ],
            "min" : [
                -0.14054806530475616,
                -0.07673323154449463,
                -0.007988765835762024
            ],
            "type" : "VEC3"
        },
        {
            "bufferView" : 5,
            "componentType" : 5126,
            "count" : 24,
            "type" : "VEC3"
        },
        {
            "bufferView" : 6,
            "componentType" : 5126,
            "count" : 24,
            "type" : "VEC2"
        },
        {
            "bufferView" : 7,
            "componentType" : 5123,
            "count" : 36,
            "type" : "SCALAR"
        }
    ],
    "bufferViews" : [
        {
            "buffer" : 0,
            "byteLength" : 3996,
            "byteOffset" : 0
        },
        {
            "buffer" : 0,
            "byteLength" : 3996,
            "byteOffset" : 3996
        },
        {
            "buffer" : 0,
            "byteLength" : 2664,
            "byteOffset" : 7992
        },
        {
            "buffer" : 0,
            "byteLength" : 1422,
            "byteOffset" : 10656
        },
        {
            "buffer" : 0,
            "byteLength" : 288,
            "byteOffset" : 12080
        },
        {
            "buffer" : 0,
            "byteLength" : 288,
            "byteOffset" : 12368
        },
        {
            "buffer" : 0,
            "byteLength" : 192,
            "byteOffset" : 12656
        },
        {
            "buffer" : 0,
            "byteLength" : 72,
            "byteOffset" : 12848
        }
    ],
    "buffers" : [
        {
            "byteLength" : 12920,
            "uri" : "mint_getpmana.bin"
        }
    ]
}
